<svg xmlns="http://www.w3.org/2000/svg" xmlns:xlink="http://www.w3.org/1999/xlink" width="793" zoomAndPan="magnify" viewBox="0 0 595.5 842.249979" height="1122" preserveAspectRatio="xMidYMid meet" version="1.0"><defs><clipPath id="0e8c7871d3"><path d="M 111.019531 205 L 437.253906 205 L 437.253906 547.730469 L 111.019531 547.730469 Z M 111.019531 205 " clip-rule="nonzero"/></clipPath></defs><path fill="#ffc107" d="M 274.148438 289.828125 C 238.109375 289.828125 208.894531 320.492188 208.894531 358.316406 C 208.894531 396.144531 238.109375 426.808594 274.148438 426.808594 C 310.183594 426.808594 339.394531 396.144531 339.394531 358.316406 C 339.394531 320.492188 310.183594 289.828125 274.148438 289.828125 " fill-opacity="1" fill-rule="nonzero"/><g clip-path="url(#0e8c7871d3)"><path fill="#ffc107" d="M 382.515625 494.570312 C 368.0625 459.316406 337.726562 437.269531 274.046875 437.269531 C 210.453125 437.269531 180.113281 459.257812 165.640625 494.433594 C 136.183594 464.59375 117.859375 422.726562 117.859375 376.363281 C 117.859375 285.761719 187.832031 212.3125 274.148438 212.3125 C 360.460938 212.3125 430.433594 285.761719 430.433594 376.363281 C 430.433594 422.800781 412.050781 464.726562 382.515625 494.570312 Z M 274.148438 205.136719 C 184.054688 205.136719 111.019531 281.796875 111.019531 376.363281 C 111.019531 425.824219 131 470.386719 162.953125 501.648438 C 192.085938 530.152344 231.171875 547.589844 274.148438 547.589844 C 317.042969 547.589844 356.074219 530.207031 385.195312 501.789062 C 417.230469 470.527344 437.273438 425.902344 437.273438 376.363281 C 437.273438 281.796875 364.234375 205.136719 274.148438 205.136719 " fill-opacity="1" fill-rule="nonzero"/></g></svg>