<svg xmlns="http://www.w3.org/2000/svg" xmlns:xlink="http://www.w3.org/1999/xlink" width="1920" zoomAndPan="magnify" viewBox="0 0 1440 809.999993" height="1080" preserveAspectRatio="xMidYMid meet" version="1.0"><defs><clipPath id="8542f141ef"><path d="M 1377 40 L 1394.964844 40 L 1394.964844 57 L 1377 57 Z M 1377 40 " clip-rule="nonzero"/></clipPath><clipPath id="7b76fc3223"><path d="M 1259 63 L 1276 63 L 1276 80.753906 L 1259 80.753906 Z M 1259 63 " clip-rule="nonzero"/></clipPath><clipPath id="f771e175fe"><path d="M 1283 63 L 1300 63 L 1300 80.753906 L 1283 80.753906 Z M 1283 63 " clip-rule="nonzero"/></clipPath><clipPath id="addf854737"><path d="M 1306 63 L 1324 63 L 1324 80.753906 L 1306 80.753906 Z M 1306 63 " clip-rule="nonzero"/></clipPath><clipPath id="3e94b2c3f6"><path d="M 1330 63 L 1347 63 L 1347 80.753906 L 1330 80.753906 Z M 1330 63 " clip-rule="nonzero"/></clipPath><clipPath id="28d5b71934"><path d="M 1354 63 L 1371 63 L 1371 80.753906 L 1354 80.753906 Z M 1354 63 " clip-rule="nonzero"/></clipPath><clipPath id="cdd5dd781d"><path d="M 1377 63 L 1394.964844 63 L 1394.964844 80.753906 L 1377 80.753906 Z M 1377 63 " clip-rule="nonzero"/></clipPath><clipPath id="b757faec47"><path d="M 731.839844 0 L 746 0 L 746 7 L 731.839844 7 Z M 731.839844 0 " clip-rule="nonzero"/></clipPath><clipPath id="44f0f78256"><path d="M 825 0 L 839.839844 0 L 839.839844 7 L 825 7 Z M 825 0 " clip-rule="nonzero"/></clipPath><clipPath id="840cfe3cec"><path d="M 731.839844 15 L 746 15 L 746 30 L 731.839844 30 Z M 731.839844 15 " clip-rule="nonzero"/></clipPath><clipPath id="db96c8d582"><path d="M 825 15 L 839.839844 15 L 839.839844 30 L 825 30 Z M 825 15 " clip-rule="nonzero"/></clipPath><clipPath id="45b8512242"><path d="M 731.839844 38 L 746 38 L 746 53 L 731.839844 53 Z M 731.839844 38 " clip-rule="nonzero"/></clipPath><clipPath id="99e1d7a76a"><path d="M 825 38 L 839.839844 38 L 839.839844 53 L 825 53 Z M 825 38 " clip-rule="nonzero"/></clipPath><clipPath id="f9e6201dbb"><path d="M 731.839844 60 L 746 60 L 746 75 L 731.839844 75 Z M 731.839844 60 " clip-rule="nonzero"/></clipPath><clipPath id="7f1f49a0d5"><path d="M 825 60 L 839.839844 60 L 839.839844 75 L 825 75 Z M 825 60 " clip-rule="nonzero"/></clipPath><clipPath id="414e464f65"><path d="M 731.839844 83 L 746 83 L 746 97.605469 L 731.839844 97.605469 Z M 731.839844 83 " clip-rule="nonzero"/></clipPath><clipPath id="6ddeb0dc94"><path d="M 755 83 L 770 83 L 770 97.605469 L 755 97.605469 Z M 755 83 " clip-rule="nonzero"/></clipPath><clipPath id="ce8a13dc96"><path d="M 778 83 L 793 83 L 793 97.605469 L 778 97.605469 Z M 778 83 " clip-rule="nonzero"/></clipPath><clipPath id="fab5f1a82e"><path d="M 802 83 L 817 83 L 817 97.605469 L 802 97.605469 Z M 802 83 " clip-rule="nonzero"/></clipPath><clipPath id="1e4fd4a808"><path d="M 825 83 L 839.839844 83 L 839.839844 97.605469 L 825 97.605469 Z M 825 83 " clip-rule="nonzero"/></clipPath><clipPath id="17590385e1"><path d="M 0 0 L 522 0 L 522 327 L 0 327 Z M 0 0 " clip-rule="nonzero"/></clipPath><clipPath id="5ad9ea1645"><path d="M 450.785156 -236.195312 L 521.054688 -117.390625 L -229.484375 326.527344 L -299.75 207.722656 Z M 450.785156 -236.195312 " clip-rule="nonzero"/></clipPath><clipPath id="dcdcd2ca8c"><path d="M 450.785156 -236.195312 L 521.054688 -117.390625 L -229.484375 326.527344 L -299.75 207.722656 Z M 450.785156 -236.195312 " clip-rule="nonzero"/></clipPath><clipPath id="a1b289f690"><path d="M 749 370 L 1440 370 L 1440 810 L 749 810 Z M 749 370 " clip-rule="nonzero"/></clipPath><clipPath id="6197bd58a6"><path d="M 1752.03125 370.46875 L 2040.625 858.394531 L 1038.136719 1451.335938 L 749.542969 963.410156 Z M 1752.03125 370.46875 " clip-rule="nonzero"/></clipPath><clipPath id="45936b0341"><path d="M 1752.03125 370.46875 L 2040.625 858.394531 L 1038.136719 1451.335938 L 749.542969 963.410156 Z M 1752.03125 370.46875 " clip-rule="nonzero"/></clipPath><clipPath id="208113d5c9"><path d="M 0 0 L 1082 0 L 1082 498 L 0 498 Z M 0 0 " clip-rule="nonzero"/></clipPath><clipPath id="46da70916b"><path d="M 1014.152344 -279.476562 L 1081.046875 -166.375 L -40.90625 497.222656 L -107.804688 384.125 Z M 1014.152344 -279.476562 " clip-rule="nonzero"/></clipPath><clipPath id="29c8d69b80"><path d="M 1014.152344 -279.476562 L 1081.046875 -166.375 L -40.90625 497.222656 L -107.804688 384.125 Z M 1014.152344 -279.476562 " clip-rule="nonzero"/></clipPath><clipPath id="45f4510ad5"><path d="M 1522.027344 -193.359375 L 1588.921875 -80.261719 L -22.949219 873.113281 L -89.84375 760.011719 Z M 1522.027344 -193.359375 " clip-rule="nonzero"/></clipPath><clipPath id="bddcf52cac"><path d="M 1522.027344 -193.359375 L 1588.921875 -80.261719 L -22.949219 873.113281 L -89.84375 760.011719 Z M 1522.027344 -193.359375 " clip-rule="nonzero"/></clipPath><clipPath id="7bb155785a"><path d="M 217 0 L 1440 0 L 1440 810 L 217 810 Z M 217 0 " clip-rule="nonzero"/></clipPath><clipPath id="ac6910d500"><path d="M 1829.449219 0 L 1896.34375 113.097656 L 284.472656 1066.472656 L 217.578125 953.371094 Z M 1829.449219 0 " clip-rule="nonzero"/></clipPath><clipPath id="31793474e6"><path d="M 1829.449219 0 L 1896.34375 113.097656 L 284.472656 1066.472656 L 217.578125 953.371094 Z M 1829.449219 0 " clip-rule="nonzero"/></clipPath></defs><rect x="-144" width="1728" fill="#ffffff" y="-80.999999" height="971.999992" fill-opacity="1"/><rect x="-144" width="1728" fill="#ffffff" y="-80.999999" height="971.999992" fill-opacity="1"/><path fill="#ffffff" d="M 1267.496094 40.214844 C 1266.957031 40.214844 1266.425781 40.265625 1265.898438 40.371094 C 1265.371094 40.476562 1264.859375 40.628906 1264.363281 40.835938 C 1263.867188 41.042969 1263.394531 41.292969 1262.949219 41.59375 C 1262.503906 41.890625 1262.089844 42.230469 1261.710938 42.609375 C 1261.328125 42.988281 1260.992188 43.402344 1260.691406 43.847656 C 1260.394531 44.296875 1260.140625 44.765625 1259.9375 45.261719 C 1259.730469 45.757812 1259.574219 46.269531 1259.472656 46.796875 C 1259.367188 47.324219 1259.3125 47.855469 1259.3125 48.394531 C 1259.3125 48.929688 1259.367188 49.464844 1259.472656 49.988281 C 1259.574219 50.515625 1259.730469 51.027344 1259.9375 51.523438 C 1260.140625 52.019531 1260.394531 52.492188 1260.691406 52.9375 C 1260.992188 53.386719 1261.328125 53.796875 1261.710938 54.179688 C 1262.089844 54.558594 1262.503906 54.898438 1262.949219 55.195312 C 1263.394531 55.496094 1263.867188 55.746094 1264.363281 55.953125 C 1264.859375 56.15625 1265.371094 56.3125 1265.898438 56.417969 C 1266.425781 56.523438 1266.957031 56.574219 1267.496094 56.574219 C 1268.03125 56.574219 1268.5625 56.523438 1269.089844 56.417969 C 1269.617188 56.3125 1270.128906 56.15625 1270.625 55.953125 C 1271.121094 55.746094 1271.59375 55.496094 1272.039062 55.195312 C 1272.484375 54.898438 1272.898438 54.558594 1273.277344 54.179688 C 1273.660156 53.796875 1273.996094 53.386719 1274.296875 52.9375 C 1274.59375 52.492188 1274.847656 52.019531 1275.050781 51.523438 C 1275.257812 51.027344 1275.414062 50.515625 1275.519531 49.988281 C 1275.621094 49.464844 1275.675781 48.929688 1275.675781 48.394531 C 1275.675781 47.855469 1275.621094 47.324219 1275.519531 46.796875 C 1275.414062 46.269531 1275.257812 45.757812 1275.050781 45.261719 C 1274.847656 44.765625 1274.59375 44.296875 1274.296875 43.847656 C 1273.996094 43.402344 1273.660156 42.988281 1273.277344 42.609375 C 1272.898438 42.230469 1272.484375 41.890625 1272.039062 41.59375 C 1271.59375 41.292969 1271.121094 41.042969 1270.625 40.835938 C 1270.128906 40.628906 1269.617188 40.476562 1269.089844 40.371094 C 1268.5625 40.265625 1268.03125 40.214844 1267.496094 40.214844 Z M 1267.496094 52.070312 C 1267.007812 52.070312 1266.539062 51.976562 1266.085938 51.789062 C 1265.636719 51.601562 1265.238281 51.335938 1264.894531 50.992188 C 1264.550781 50.648438 1264.285156 50.25 1264.097656 49.800781 C 1263.910156 49.351562 1263.820312 48.882812 1263.820312 48.394531 C 1263.820312 47.90625 1263.910156 47.4375 1264.097656 46.988281 C 1264.285156 46.539062 1264.550781 46.140625 1264.894531 45.796875 C 1265.238281 45.449219 1265.636719 45.183594 1266.085938 45 C 1266.539062 44.8125 1267.007812 44.71875 1267.496094 44.71875 C 1267.980469 44.71875 1268.449219 44.8125 1268.902344 45 C 1269.351562 45.183594 1269.75 45.449219 1270.09375 45.796875 C 1270.4375 46.140625 1270.703125 46.539062 1270.890625 46.988281 C 1271.078125 47.4375 1271.167969 47.90625 1271.167969 48.394531 C 1271.167969 48.882812 1271.078125 49.351562 1270.890625 49.800781 C 1270.703125 50.25 1270.4375 50.648438 1270.09375 50.992188 C 1269.75 51.335938 1269.351562 51.601562 1268.902344 51.789062 C 1268.449219 51.976562 1267.980469 52.070312 1267.496094 52.070312 Z M 1267.496094 52.070312 " fill-opacity="1" fill-rule="nonzero"/><path fill="#ffffff" d="M 1291.207031 40.214844 C 1290.667969 40.214844 1290.136719 40.265625 1289.609375 40.371094 C 1289.082031 40.476562 1288.570312 40.628906 1288.074219 40.835938 C 1287.578125 41.042969 1287.109375 41.292969 1286.660156 41.59375 C 1286.214844 41.890625 1285.800781 42.230469 1285.421875 42.609375 C 1285.042969 42.988281 1284.703125 43.402344 1284.402344 43.847656 C 1284.105469 44.296875 1283.855469 44.765625 1283.648438 45.261719 C 1283.441406 45.757812 1283.289062 46.269531 1283.183594 46.796875 C 1283.078125 47.324219 1283.027344 47.855469 1283.027344 48.394531 C 1283.027344 48.929688 1283.078125 49.464844 1283.183594 49.988281 C 1283.289062 50.515625 1283.441406 51.027344 1283.648438 51.523438 C 1283.855469 52.019531 1284.105469 52.492188 1284.402344 52.9375 C 1284.703125 53.386719 1285.042969 53.796875 1285.421875 54.179688 C 1285.800781 54.558594 1286.214844 54.898438 1286.660156 55.195312 C 1287.109375 55.496094 1287.578125 55.746094 1288.074219 55.953125 C 1288.570312 56.15625 1289.082031 56.3125 1289.609375 56.417969 C 1290.136719 56.523438 1290.667969 56.574219 1291.207031 56.574219 C 1291.742188 56.574219 1292.277344 56.523438 1292.800781 56.417969 C 1293.328125 56.3125 1293.839844 56.15625 1294.335938 55.953125 C 1294.832031 55.746094 1295.304688 55.496094 1295.75 55.195312 C 1296.199219 54.898438 1296.609375 54.558594 1296.992188 54.179688 C 1297.371094 53.796875 1297.710938 53.386719 1298.007812 52.9375 C 1298.308594 52.492188 1298.558594 52.019531 1298.765625 51.523438 C 1298.96875 51.027344 1299.125 50.515625 1299.230469 49.988281 C 1299.335938 49.464844 1299.386719 48.929688 1299.386719 48.394531 C 1299.386719 47.855469 1299.335938 47.324219 1299.230469 46.796875 C 1299.125 46.269531 1298.96875 45.757812 1298.765625 45.261719 C 1298.558594 44.765625 1298.308594 44.296875 1298.007812 43.847656 C 1297.710938 43.402344 1297.371094 42.988281 1296.992188 42.609375 C 1296.609375 42.230469 1296.199219 41.890625 1295.75 41.59375 C 1295.304688 41.292969 1294.832031 41.042969 1294.335938 40.835938 C 1293.839844 40.628906 1293.328125 40.476562 1292.800781 40.371094 C 1292.277344 40.265625 1291.742188 40.214844 1291.207031 40.214844 Z M 1291.207031 52.070312 C 1290.71875 52.070312 1290.25 51.976562 1289.800781 51.789062 C 1289.347656 51.601562 1288.953125 51.335938 1288.605469 50.992188 C 1288.261719 50.648438 1287.996094 50.25 1287.8125 49.800781 C 1287.625 49.351562 1287.53125 48.882812 1287.53125 48.394531 C 1287.53125 47.90625 1287.625 47.4375 1287.8125 46.988281 C 1287.996094 46.539062 1288.261719 46.140625 1288.605469 45.796875 C 1288.953125 45.449219 1289.347656 45.183594 1289.800781 45 C 1290.25 44.8125 1290.71875 44.71875 1291.207031 44.71875 C 1291.695312 44.71875 1292.164062 44.8125 1292.613281 45 C 1293.0625 45.183594 1293.460938 45.449219 1293.804688 45.796875 C 1294.148438 46.140625 1294.414062 46.539062 1294.601562 46.988281 C 1294.789062 47.4375 1294.882812 47.90625 1294.882812 48.394531 C 1294.882812 48.882812 1294.789062 49.351562 1294.601562 49.800781 C 1294.414062 50.25 1294.148438 50.648438 1293.804688 50.992188 C 1293.460938 51.335938 1293.0625 51.601562 1292.613281 51.789062 C 1292.164062 51.976562 1291.695312 52.070312 1291.207031 52.070312 Z M 1291.207031 52.070312 " fill-opacity="1" fill-rule="nonzero"/><path fill="#ffffff" d="M 1314.917969 40.214844 C 1314.382812 40.214844 1313.847656 40.265625 1313.324219 40.371094 C 1312.796875 40.476562 1312.285156 40.628906 1311.789062 40.835938 C 1311.292969 41.042969 1310.820312 41.292969 1310.375 41.59375 C 1309.925781 41.890625 1309.511719 42.230469 1309.132812 42.609375 C 1308.753906 42.988281 1308.414062 43.402344 1308.117188 43.847656 C 1307.816406 44.296875 1307.566406 44.765625 1307.359375 45.261719 C 1307.15625 45.757812 1307 46.269531 1306.894531 46.796875 C 1306.789062 47.324219 1306.738281 47.855469 1306.738281 48.394531 C 1306.738281 48.929688 1306.789062 49.464844 1306.894531 49.988281 C 1307 50.515625 1307.15625 51.027344 1307.359375 51.523438 C 1307.566406 52.019531 1307.816406 52.492188 1308.117188 52.9375 C 1308.414062 53.386719 1308.753906 53.796875 1309.132812 54.179688 C 1309.511719 54.558594 1309.925781 54.898438 1310.375 55.195312 C 1310.820312 55.496094 1311.292969 55.746094 1311.789062 55.953125 C 1312.285156 56.15625 1312.796875 56.3125 1313.324219 56.417969 C 1313.847656 56.523438 1314.382812 56.574219 1314.917969 56.574219 C 1315.457031 56.574219 1315.988281 56.523438 1316.515625 56.417969 C 1317.042969 56.3125 1317.550781 56.15625 1318.050781 55.953125 C 1318.546875 55.746094 1319.015625 55.496094 1319.464844 55.195312 C 1319.910156 54.898438 1320.324219 54.558594 1320.703125 54.179688 C 1321.082031 53.796875 1321.421875 53.386719 1321.71875 52.9375 C 1322.019531 52.492188 1322.269531 52.019531 1322.476562 51.523438 C 1322.683594 51.027344 1322.835938 50.515625 1322.941406 49.988281 C 1323.046875 49.464844 1323.097656 48.929688 1323.097656 48.394531 C 1323.097656 47.855469 1323.046875 47.324219 1322.941406 46.796875 C 1322.835938 46.269531 1322.683594 45.757812 1322.476562 45.261719 C 1322.269531 44.765625 1322.019531 44.296875 1321.71875 43.847656 C 1321.421875 43.402344 1321.082031 42.988281 1320.703125 42.609375 C 1320.324219 42.230469 1319.910156 41.890625 1319.464844 41.59375 C 1319.015625 41.292969 1318.546875 41.042969 1318.050781 40.835938 C 1317.550781 40.628906 1317.042969 40.476562 1316.515625 40.371094 C 1315.988281 40.265625 1315.457031 40.214844 1314.917969 40.214844 Z M 1314.917969 52.070312 C 1314.429688 52.070312 1313.960938 51.976562 1313.511719 51.789062 C 1313.0625 51.601562 1312.664062 51.335938 1312.320312 50.992188 C 1311.976562 50.648438 1311.710938 50.25 1311.523438 49.800781 C 1311.335938 49.351562 1311.242188 48.882812 1311.242188 48.394531 C 1311.242188 47.90625 1311.335938 47.4375 1311.523438 46.988281 C 1311.710938 46.539062 1311.976562 46.140625 1312.320312 45.796875 C 1312.664062 45.449219 1313.0625 45.183594 1313.511719 45 C 1313.960938 44.8125 1314.429688 44.71875 1314.917969 44.71875 C 1315.40625 44.71875 1315.875 44.8125 1316.324219 45 C 1316.773438 45.183594 1317.171875 45.449219 1317.515625 45.796875 C 1317.863281 46.140625 1318.128906 46.539062 1318.3125 46.988281 C 1318.5 47.4375 1318.59375 47.90625 1318.59375 48.394531 C 1318.59375 48.882812 1318.5 49.351562 1318.3125 49.800781 C 1318.128906 50.25 1317.863281 50.648438 1317.515625 50.992188 C 1317.171875 51.335938 1316.773438 51.601562 1316.324219 51.789062 C 1315.875 51.976562 1315.40625 52.070312 1314.917969 52.070312 Z M 1314.917969 52.070312 " fill-opacity="1" fill-rule="nonzero"/><path fill="#ffffff" d="M 1338.628906 40.214844 C 1338.09375 40.214844 1337.5625 40.265625 1337.035156 40.371094 C 1336.507812 40.476562 1335.996094 40.628906 1335.5 40.835938 C 1335.003906 41.042969 1334.53125 41.292969 1334.085938 41.59375 C 1333.640625 41.890625 1333.226562 42.230469 1332.847656 42.609375 C 1332.464844 42.988281 1332.125 43.402344 1331.828125 43.847656 C 1331.53125 44.296875 1331.277344 44.765625 1331.074219 45.261719 C 1330.867188 45.757812 1330.710938 46.269531 1330.605469 46.796875 C 1330.503906 47.324219 1330.449219 47.855469 1330.449219 48.394531 C 1330.449219 48.929688 1330.503906 49.464844 1330.605469 49.988281 C 1330.710938 50.515625 1330.867188 51.027344 1331.074219 51.523438 C 1331.277344 52.019531 1331.53125 52.492188 1331.828125 52.9375 C 1332.125 53.386719 1332.464844 53.796875 1332.847656 54.179688 C 1333.226562 54.558594 1333.640625 54.898438 1334.085938 55.195312 C 1334.53125 55.496094 1335.003906 55.746094 1335.5 55.953125 C 1335.996094 56.15625 1336.507812 56.3125 1337.035156 56.417969 C 1337.5625 56.523438 1338.09375 56.574219 1338.628906 56.574219 C 1339.167969 56.574219 1339.699219 56.523438 1340.226562 56.417969 C 1340.753906 56.3125 1341.265625 56.15625 1341.761719 55.953125 C 1342.257812 55.746094 1342.730469 55.496094 1343.175781 55.195312 C 1343.621094 54.898438 1344.035156 54.558594 1344.414062 54.179688 C 1344.792969 53.796875 1345.132812 53.386719 1345.433594 52.9375 C 1345.730469 52.492188 1345.984375 52.019531 1346.1875 51.523438 C 1346.394531 51.027344 1346.550781 50.515625 1346.652344 49.988281 C 1346.757812 49.464844 1346.8125 48.929688 1346.8125 48.394531 C 1346.8125 47.855469 1346.757812 47.324219 1346.652344 46.796875 C 1346.550781 46.269531 1346.394531 45.757812 1346.1875 45.261719 C 1345.984375 44.765625 1345.730469 44.296875 1345.433594 43.847656 C 1345.132812 43.402344 1344.792969 42.988281 1344.414062 42.609375 C 1344.035156 42.230469 1343.621094 41.890625 1343.175781 41.59375 C 1342.730469 41.292969 1342.257812 41.042969 1341.761719 40.835938 C 1341.265625 40.628906 1340.753906 40.476562 1340.226562 40.371094 C 1339.699219 40.265625 1339.167969 40.214844 1338.628906 40.214844 Z M 1338.628906 52.070312 C 1338.144531 52.070312 1337.675781 51.976562 1337.222656 51.789062 C 1336.773438 51.601562 1336.375 51.335938 1336.03125 50.992188 C 1335.6875 50.648438 1335.421875 50.25 1335.234375 49.800781 C 1335.046875 49.351562 1334.953125 48.882812 1334.953125 48.394531 C 1334.953125 47.90625 1335.046875 47.4375 1335.234375 46.988281 C 1335.421875 46.539062 1335.6875 46.140625 1336.03125 45.796875 C 1336.375 45.449219 1336.773438 45.183594 1337.222656 45 C 1337.675781 44.8125 1338.144531 44.71875 1338.628906 44.71875 C 1339.117188 44.71875 1339.585938 44.8125 1340.035156 45 C 1340.488281 45.183594 1340.882812 45.449219 1341.230469 45.796875 C 1341.574219 46.140625 1341.839844 46.539062 1342.027344 46.988281 C 1342.210938 47.4375 1342.304688 47.90625 1342.304688 48.394531 C 1342.304688 48.882812 1342.210938 49.351562 1342.027344 49.800781 C 1341.839844 50.25 1341.574219 50.648438 1341.230469 50.992188 C 1340.882812 51.335938 1340.488281 51.601562 1340.035156 51.789062 C 1339.585938 51.976562 1339.117188 52.070312 1338.628906 52.070312 Z M 1338.628906 52.070312 " fill-opacity="1" fill-rule="nonzero"/><path fill="#ffffff" d="M 1362.34375 40.214844 C 1361.804688 40.214844 1361.273438 40.265625 1360.746094 40.371094 C 1360.21875 40.476562 1359.707031 40.628906 1359.210938 40.835938 C 1358.714844 41.042969 1358.242188 41.292969 1357.796875 41.59375 C 1357.351562 41.890625 1356.9375 42.230469 1356.558594 42.609375 C 1356.179688 42.988281 1355.839844 43.402344 1355.539062 43.847656 C 1355.242188 44.296875 1354.988281 44.765625 1354.785156 45.261719 C 1354.578125 45.757812 1354.421875 46.269531 1354.320312 46.796875 C 1354.214844 47.324219 1354.160156 47.855469 1354.160156 48.394531 C 1354.160156 48.929688 1354.214844 49.464844 1354.320312 49.988281 C 1354.421875 50.515625 1354.578125 51.027344 1354.785156 51.523438 C 1354.988281 52.019531 1355.242188 52.492188 1355.539062 52.9375 C 1355.839844 53.386719 1356.179688 53.796875 1356.558594 54.179688 C 1356.9375 54.558594 1357.351562 54.898438 1357.796875 55.195312 C 1358.242188 55.496094 1358.714844 55.746094 1359.210938 55.953125 C 1359.707031 56.15625 1360.21875 56.3125 1360.746094 56.417969 C 1361.273438 56.523438 1361.804688 56.574219 1362.34375 56.574219 C 1362.878906 56.574219 1363.410156 56.523438 1363.9375 56.417969 C 1364.464844 56.3125 1364.976562 56.15625 1365.472656 55.953125 C 1365.96875 55.746094 1366.441406 55.496094 1366.886719 55.195312 C 1367.332031 54.898438 1367.746094 54.558594 1368.128906 54.179688 C 1368.507812 53.796875 1368.847656 53.386719 1369.144531 52.9375 C 1369.441406 52.492188 1369.695312 52.019531 1369.898438 51.523438 C 1370.105469 51.027344 1370.261719 50.515625 1370.367188 49.988281 C 1370.46875 49.464844 1370.523438 48.929688 1370.523438 48.394531 C 1370.523438 47.855469 1370.46875 47.324219 1370.367188 46.796875 C 1370.261719 46.269531 1370.105469 45.757812 1369.898438 45.261719 C 1369.695312 44.765625 1369.441406 44.296875 1369.144531 43.847656 C 1368.847656 43.402344 1368.507812 42.988281 1368.128906 42.609375 C 1367.746094 42.230469 1367.332031 41.890625 1366.886719 41.59375 C 1366.441406 41.292969 1365.96875 41.042969 1365.472656 40.835938 C 1364.976562 40.628906 1364.464844 40.476562 1363.9375 40.371094 C 1363.410156 40.265625 1362.878906 40.214844 1362.34375 40.214844 Z M 1362.34375 52.070312 C 1361.855469 52.070312 1361.386719 51.976562 1360.9375 51.789062 C 1360.484375 51.601562 1360.089844 51.335938 1359.742188 50.992188 C 1359.398438 50.648438 1359.132812 50.25 1358.945312 49.800781 C 1358.761719 49.351562 1358.667969 48.882812 1358.667969 48.394531 C 1358.667969 47.90625 1358.761719 47.4375 1358.945312 46.988281 C 1359.132812 46.539062 1359.398438 46.140625 1359.742188 45.796875 C 1360.089844 45.449219 1360.484375 45.183594 1360.9375 45 C 1361.386719 44.8125 1361.855469 44.71875 1362.34375 44.71875 C 1362.828125 44.71875 1363.296875 44.8125 1363.75 45 C 1364.199219 45.183594 1364.597656 45.449219 1364.941406 45.796875 C 1365.285156 46.140625 1365.550781 46.539062 1365.738281 46.988281 C 1365.925781 47.4375 1366.019531 47.90625 1366.019531 48.394531 C 1366.019531 48.882812 1365.925781 49.351562 1365.738281 49.800781 C 1365.550781 50.25 1365.285156 50.648438 1364.941406 50.992188 C 1364.597656 51.335938 1364.199219 51.601562 1363.75 51.789062 C 1363.296875 51.976562 1362.828125 52.070312 1362.34375 52.070312 Z M 1362.34375 52.070312 " fill-opacity="1" fill-rule="nonzero"/><g clip-path="url(#8542f141ef)"><path fill="#ffffff" d="M 1386.054688 56.574219 C 1386.589844 56.574219 1387.125 56.523438 1387.652344 56.417969 C 1388.175781 56.3125 1388.6875 56.15625 1389.183594 55.953125 C 1389.679688 55.746094 1390.152344 55.496094 1390.597656 55.195312 C 1391.046875 54.898438 1391.460938 54.558594 1391.839844 54.179688 C 1392.21875 53.796875 1392.558594 53.386719 1392.855469 52.9375 C 1393.15625 52.492188 1393.40625 52.019531 1393.613281 51.523438 C 1393.816406 51.027344 1393.972656 50.515625 1394.078125 49.988281 C 1394.183594 49.464844 1394.234375 48.929688 1394.234375 48.394531 C 1394.234375 47.855469 1394.183594 47.324219 1394.078125 46.796875 C 1393.972656 46.269531 1393.816406 45.757812 1393.613281 45.261719 C 1393.40625 44.765625 1393.15625 44.296875 1392.855469 43.847656 C 1392.558594 43.402344 1392.21875 42.988281 1391.839844 42.609375 C 1391.460938 42.230469 1391.046875 41.890625 1390.597656 41.59375 C 1390.152344 41.292969 1389.679688 41.042969 1389.183594 40.835938 C 1388.6875 40.628906 1388.175781 40.476562 1387.652344 40.371094 C 1387.125 40.265625 1386.589844 40.214844 1386.054688 40.214844 C 1385.515625 40.214844 1384.984375 40.265625 1384.457031 40.371094 C 1383.933594 40.476562 1383.421875 40.628906 1382.925781 40.835938 C 1382.425781 41.042969 1381.957031 41.292969 1381.507812 41.59375 C 1381.0625 41.890625 1380.648438 42.230469 1380.269531 42.609375 C 1379.890625 42.988281 1379.550781 43.402344 1379.253906 43.847656 C 1378.953125 44.296875 1378.703125 44.765625 1378.496094 45.261719 C 1378.289062 45.757812 1378.136719 46.269531 1378.03125 46.796875 C 1377.925781 47.324219 1377.875 47.855469 1377.875 48.394531 C 1377.875 48.929688 1377.925781 49.464844 1378.03125 49.988281 C 1378.136719 50.515625 1378.289062 51.027344 1378.496094 51.523438 C 1378.703125 52.019531 1378.953125 52.492188 1379.253906 52.9375 C 1379.550781 53.386719 1379.890625 53.796875 1380.269531 54.179688 C 1380.648438 54.558594 1381.0625 54.898438 1381.507812 55.195312 C 1381.957031 55.496094 1382.425781 55.746094 1382.925781 55.953125 C 1383.421875 56.15625 1383.933594 56.3125 1384.457031 56.417969 C 1384.984375 56.523438 1385.515625 56.574219 1386.054688 56.574219 Z M 1386.054688 44.71875 C 1386.542969 44.71875 1387.011719 44.8125 1387.460938 45 C 1387.910156 45.183594 1388.308594 45.449219 1388.652344 45.796875 C 1388.996094 46.140625 1389.261719 46.539062 1389.449219 46.988281 C 1389.636719 47.4375 1389.730469 47.90625 1389.730469 48.394531 C 1389.730469 48.882812 1389.636719 49.351562 1389.449219 49.800781 C 1389.261719 50.25 1388.996094 50.648438 1388.652344 50.992188 C 1388.308594 51.335938 1387.910156 51.601562 1387.460938 51.789062 C 1387.011719 51.976562 1386.542969 52.070312 1386.054688 52.070312 C 1385.566406 52.070312 1385.097656 51.976562 1384.648438 51.789062 C 1384.199219 51.601562 1383.800781 51.335938 1383.457031 50.992188 C 1383.109375 50.648438 1382.84375 50.25 1382.660156 49.800781 C 1382.472656 49.351562 1382.378906 48.882812 1382.378906 48.394531 C 1382.378906 47.90625 1382.472656 47.4375 1382.660156 46.988281 C 1382.84375 46.539062 1383.109375 46.140625 1383.457031 45.796875 C 1383.800781 45.449219 1384.199219 45.183594 1384.648438 45 C 1385.097656 44.8125 1385.566406 44.71875 1386.054688 44.71875 Z M 1386.054688 44.71875 " fill-opacity="1" fill-rule="nonzero"/></g><g clip-path="url(#7b76fc3223)"><path fill="#ffffff" d="M 1267.496094 63.925781 C 1266.957031 63.925781 1266.425781 63.976562 1265.898438 64.082031 C 1265.371094 64.1875 1264.859375 64.34375 1264.363281 64.546875 C 1263.867188 64.753906 1263.394531 65.003906 1262.949219 65.304688 C 1262.503906 65.601562 1262.089844 65.941406 1261.710938 66.320312 C 1261.328125 66.703125 1260.992188 67.113281 1260.691406 67.5625 C 1260.394531 68.007812 1260.140625 68.480469 1259.9375 68.976562 C 1259.730469 69.472656 1259.574219 69.984375 1259.472656 70.511719 C 1259.367188 71.035156 1259.3125 71.570312 1259.3125 72.105469 C 1259.3125 72.644531 1259.367188 73.175781 1259.472656 73.703125 C 1259.574219 74.230469 1259.730469 74.742188 1259.9375 75.238281 C 1260.140625 75.734375 1260.394531 76.203125 1260.691406 76.652344 C 1260.992188 77.097656 1261.328125 77.511719 1261.710938 77.890625 C 1262.089844 78.269531 1262.503906 78.609375 1262.949219 78.90625 C 1263.394531 79.207031 1263.867188 79.457031 1264.363281 79.664062 C 1264.859375 79.871094 1265.371094 80.023438 1265.898438 80.128906 C 1266.425781 80.234375 1266.957031 80.285156 1267.496094 80.285156 C 1268.03125 80.285156 1268.5625 80.234375 1269.089844 80.128906 C 1269.617188 80.023438 1270.128906 79.871094 1270.625 79.664062 C 1271.121094 79.457031 1271.59375 79.207031 1272.039062 78.90625 C 1272.484375 78.609375 1272.898438 78.269531 1273.277344 77.890625 C 1273.660156 77.511719 1273.996094 77.097656 1274.296875 76.652344 C 1274.59375 76.203125 1274.847656 75.734375 1275.050781 75.238281 C 1275.257812 74.742188 1275.414062 74.230469 1275.519531 73.703125 C 1275.621094 73.175781 1275.675781 72.644531 1275.675781 72.105469 C 1275.675781 71.570312 1275.621094 71.035156 1275.519531 70.511719 C 1275.414062 69.984375 1275.257812 69.472656 1275.050781 68.976562 C 1274.847656 68.480469 1274.59375 68.007812 1274.296875 67.5625 C 1273.996094 67.113281 1273.660156 66.703125 1273.277344 66.320312 C 1272.898438 65.941406 1272.484375 65.601562 1272.039062 65.304688 C 1271.59375 65.003906 1271.121094 64.753906 1270.625 64.546875 C 1270.128906 64.34375 1269.617188 64.1875 1269.089844 64.082031 C 1268.5625 63.976562 1268.03125 63.925781 1267.496094 63.925781 Z M 1267.496094 75.78125 C 1267.007812 75.78125 1266.539062 75.6875 1266.085938 75.5 C 1265.636719 75.316406 1265.238281 75.050781 1264.894531 74.703125 C 1264.550781 74.359375 1264.285156 73.960938 1264.097656 73.511719 C 1263.910156 73.0625 1263.820312 72.59375 1263.820312 72.105469 C 1263.820312 71.617188 1263.910156 71.148438 1264.097656 70.699219 C 1264.285156 70.25 1264.550781 69.851562 1264.894531 69.507812 C 1265.238281 69.164062 1265.636719 68.898438 1266.085938 68.710938 C 1266.539062 68.523438 1267.007812 68.429688 1267.496094 68.429688 C 1267.980469 68.429688 1268.449219 68.523438 1268.902344 68.710938 C 1269.351562 68.898438 1269.75 69.164062 1270.09375 69.507812 C 1270.4375 69.851562 1270.703125 70.25 1270.890625 70.699219 C 1271.078125 71.148438 1271.167969 71.617188 1271.167969 72.105469 C 1271.167969 72.59375 1271.078125 73.0625 1270.890625 73.511719 C 1270.703125 73.960938 1270.4375 74.359375 1270.09375 74.703125 C 1269.75 75.050781 1269.351562 75.316406 1268.902344 75.5 C 1268.449219 75.6875 1267.980469 75.78125 1267.496094 75.78125 Z M 1267.496094 75.78125 " fill-opacity="1" fill-rule="nonzero"/></g><g clip-path="url(#f771e175fe)"><path fill="#ffffff" d="M 1291.207031 63.925781 C 1290.667969 63.925781 1290.136719 63.976562 1289.609375 64.082031 C 1289.082031 64.1875 1288.570312 64.34375 1288.074219 64.546875 C 1287.578125 64.753906 1287.109375 65.003906 1286.660156 65.304688 C 1286.214844 65.601562 1285.800781 65.941406 1285.421875 66.320312 C 1285.042969 66.703125 1284.703125 67.113281 1284.402344 67.5625 C 1284.105469 68.007812 1283.855469 68.480469 1283.648438 68.976562 C 1283.441406 69.472656 1283.289062 69.984375 1283.183594 70.511719 C 1283.078125 71.035156 1283.027344 71.570312 1283.027344 72.105469 C 1283.027344 72.644531 1283.078125 73.175781 1283.183594 73.703125 C 1283.289062 74.230469 1283.441406 74.742188 1283.648438 75.238281 C 1283.855469 75.734375 1284.105469 76.203125 1284.402344 76.652344 C 1284.703125 77.097656 1285.042969 77.511719 1285.421875 77.890625 C 1285.800781 78.269531 1286.214844 78.609375 1286.660156 78.90625 C 1287.109375 79.207031 1287.578125 79.457031 1288.074219 79.664062 C 1288.570312 79.871094 1289.082031 80.023438 1289.609375 80.128906 C 1290.136719 80.234375 1290.667969 80.285156 1291.207031 80.285156 C 1291.742188 80.285156 1292.277344 80.234375 1292.800781 80.128906 C 1293.328125 80.023438 1293.839844 79.871094 1294.335938 79.664062 C 1294.832031 79.457031 1295.304688 79.207031 1295.75 78.90625 C 1296.199219 78.609375 1296.609375 78.269531 1296.992188 77.890625 C 1297.371094 77.511719 1297.710938 77.097656 1298.007812 76.652344 C 1298.308594 76.203125 1298.558594 75.734375 1298.765625 75.238281 C 1298.96875 74.742188 1299.125 74.230469 1299.230469 73.703125 C 1299.335938 73.175781 1299.386719 72.644531 1299.386719 72.105469 C 1299.386719 71.570312 1299.335938 71.035156 1299.230469 70.511719 C 1299.125 69.984375 1298.96875 69.472656 1298.765625 68.976562 C 1298.558594 68.480469 1298.308594 68.007812 1298.007812 67.5625 C 1297.710938 67.113281 1297.371094 66.703125 1296.992188 66.320312 C 1296.609375 65.941406 1296.199219 65.601562 1295.75 65.304688 C 1295.304688 65.003906 1294.832031 64.753906 1294.335938 64.546875 C 1293.839844 64.34375 1293.328125 64.1875 1292.800781 64.082031 C 1292.277344 63.976562 1291.742188 63.925781 1291.207031 63.925781 Z M 1291.207031 75.78125 C 1290.71875 75.78125 1290.25 75.6875 1289.800781 75.5 C 1289.347656 75.316406 1288.953125 75.050781 1288.605469 74.703125 C 1288.261719 74.359375 1287.996094 73.960938 1287.8125 73.511719 C 1287.625 73.0625 1287.53125 72.59375 1287.53125 72.105469 C 1287.53125 71.617188 1287.625 71.148438 1287.8125 70.699219 C 1287.996094 70.25 1288.261719 69.851562 1288.605469 69.507812 C 1288.953125 69.164062 1289.347656 68.898438 1289.800781 68.710938 C 1290.25 68.523438 1290.71875 68.429688 1291.207031 68.429688 C 1291.695312 68.429688 1292.164062 68.523438 1292.613281 68.710938 C 1293.0625 68.898438 1293.460938 69.164062 1293.804688 69.507812 C 1294.148438 69.851562 1294.414062 70.25 1294.601562 70.699219 C 1294.789062 71.148438 1294.882812 71.617188 1294.882812 72.105469 C 1294.882812 72.59375 1294.789062 73.0625 1294.601562 73.511719 C 1294.414062 73.960938 1294.148438 74.359375 1293.804688 74.703125 C 1293.460938 75.050781 1293.0625 75.316406 1292.613281 75.5 C 1292.164062 75.6875 1291.695312 75.78125 1291.207031 75.78125 Z M 1291.207031 75.78125 " fill-opacity="1" fill-rule="nonzero"/></g><g clip-path="url(#addf854737)"><path fill="#ffffff" d="M 1314.917969 63.925781 C 1314.382812 63.925781 1313.847656 63.976562 1313.324219 64.082031 C 1312.796875 64.1875 1312.285156 64.34375 1311.789062 64.546875 C 1311.292969 64.753906 1310.820312 65.003906 1310.375 65.304688 C 1309.925781 65.601562 1309.511719 65.941406 1309.132812 66.320312 C 1308.753906 66.703125 1308.414062 67.113281 1308.117188 67.5625 C 1307.816406 68.007812 1307.566406 68.480469 1307.359375 68.976562 C 1307.15625 69.472656 1307 69.984375 1306.894531 70.511719 C 1306.789062 71.035156 1306.738281 71.570312 1306.738281 72.105469 C 1306.738281 72.644531 1306.789062 73.175781 1306.894531 73.703125 C 1307 74.230469 1307.15625 74.742188 1307.359375 75.238281 C 1307.566406 75.734375 1307.816406 76.203125 1308.117188 76.652344 C 1308.414062 77.097656 1308.753906 77.511719 1309.132812 77.890625 C 1309.511719 78.269531 1309.925781 78.609375 1310.375 78.90625 C 1310.820312 79.207031 1311.292969 79.457031 1311.789062 79.664062 C 1312.285156 79.871094 1312.796875 80.023438 1313.324219 80.128906 C 1313.847656 80.234375 1314.382812 80.285156 1314.917969 80.285156 C 1315.457031 80.285156 1315.988281 80.234375 1316.515625 80.128906 C 1317.042969 80.023438 1317.550781 79.871094 1318.050781 79.664062 C 1318.546875 79.457031 1319.015625 79.207031 1319.464844 78.90625 C 1319.910156 78.609375 1320.324219 78.269531 1320.703125 77.890625 C 1321.082031 77.511719 1321.421875 77.097656 1321.71875 76.652344 C 1322.019531 76.203125 1322.269531 75.734375 1322.476562 75.238281 C 1322.683594 74.742188 1322.835938 74.230469 1322.941406 73.703125 C 1323.046875 73.175781 1323.097656 72.644531 1323.097656 72.105469 C 1323.097656 71.570312 1323.046875 71.035156 1322.941406 70.511719 C 1322.835938 69.984375 1322.683594 69.472656 1322.476562 68.976562 C 1322.269531 68.480469 1322.019531 68.007812 1321.71875 67.5625 C 1321.421875 67.113281 1321.082031 66.703125 1320.703125 66.320312 C 1320.324219 65.941406 1319.910156 65.601562 1319.464844 65.304688 C 1319.015625 65.003906 1318.546875 64.753906 1318.050781 64.546875 C 1317.550781 64.34375 1317.042969 64.1875 1316.515625 64.082031 C 1315.988281 63.976562 1315.457031 63.925781 1314.917969 63.925781 Z M 1314.917969 75.78125 C 1314.429688 75.78125 1313.960938 75.6875 1313.511719 75.5 C 1313.0625 75.316406 1312.664062 75.050781 1312.320312 74.703125 C 1311.976562 74.359375 1311.710938 73.960938 1311.523438 73.511719 C 1311.335938 73.0625 1311.242188 72.59375 1311.242188 72.105469 C 1311.242188 71.617188 1311.335938 71.148438 1311.523438 70.699219 C 1311.710938 70.25 1311.976562 69.851562 1312.320312 69.507812 C 1312.664062 69.164062 1313.0625 68.898438 1313.511719 68.710938 C 1313.960938 68.523438 1314.429688 68.429688 1314.917969 68.429688 C 1315.40625 68.429688 1315.875 68.523438 1316.324219 68.710938 C 1316.773438 68.898438 1317.171875 69.164062 1317.515625 69.507812 C 1317.863281 69.851562 1318.128906 70.25 1318.3125 70.699219 C 1318.5 71.148438 1318.59375 71.617188 1318.59375 72.105469 C 1318.59375 72.59375 1318.5 73.0625 1318.3125 73.511719 C 1318.128906 73.960938 1317.863281 74.359375 1317.515625 74.703125 C 1317.171875 75.050781 1316.773438 75.316406 1316.324219 75.5 C 1315.875 75.6875 1315.40625 75.78125 1314.917969 75.78125 Z M 1314.917969 75.78125 " fill-opacity="1" fill-rule="nonzero"/></g><g clip-path="url(#3e94b2c3f6)"><path fill="#ffffff" d="M 1338.628906 63.925781 C 1338.09375 63.925781 1337.5625 63.976562 1337.035156 64.082031 C 1336.507812 64.1875 1335.996094 64.34375 1335.5 64.546875 C 1335.003906 64.753906 1334.53125 65.003906 1334.085938 65.304688 C 1333.640625 65.601562 1333.226562 65.941406 1332.847656 66.320312 C 1332.464844 66.703125 1332.125 67.113281 1331.828125 67.5625 C 1331.53125 68.007812 1331.277344 68.480469 1331.074219 68.976562 C 1330.867188 69.472656 1330.710938 69.984375 1330.605469 70.511719 C 1330.503906 71.035156 1330.449219 71.570312 1330.449219 72.105469 C 1330.449219 72.644531 1330.503906 73.175781 1330.605469 73.703125 C 1330.710938 74.230469 1330.867188 74.742188 1331.074219 75.238281 C 1331.277344 75.734375 1331.53125 76.203125 1331.828125 76.652344 C 1332.125 77.097656 1332.464844 77.511719 1332.847656 77.890625 C 1333.226562 78.269531 1333.640625 78.609375 1334.085938 78.90625 C 1334.53125 79.207031 1335.003906 79.457031 1335.5 79.664062 C 1335.996094 79.871094 1336.507812 80.023438 1337.035156 80.128906 C 1337.5625 80.234375 1338.09375 80.285156 1338.628906 80.285156 C 1339.167969 80.285156 1339.699219 80.234375 1340.226562 80.128906 C 1340.753906 80.023438 1341.265625 79.871094 1341.761719 79.664062 C 1342.257812 79.457031 1342.730469 79.207031 1343.175781 78.90625 C 1343.621094 78.609375 1344.035156 78.269531 1344.414062 77.890625 C 1344.792969 77.511719 1345.132812 77.097656 1345.433594 76.652344 C 1345.730469 76.203125 1345.984375 75.734375 1346.1875 75.238281 C 1346.394531 74.742188 1346.550781 74.230469 1346.652344 73.703125 C 1346.757812 73.175781 1346.8125 72.644531 1346.8125 72.105469 C 1346.8125 71.570312 1346.757812 71.035156 1346.652344 70.511719 C 1346.550781 69.984375 1346.394531 69.472656 1346.1875 68.976562 C 1345.984375 68.480469 1345.730469 68.007812 1345.433594 67.5625 C 1345.132812 67.113281 1344.792969 66.703125 1344.414062 66.320312 C 1344.035156 65.941406 1343.621094 65.601562 1343.175781 65.304688 C 1342.730469 65.003906 1342.257812 64.753906 1341.761719 64.546875 C 1341.265625 64.34375 1340.753906 64.1875 1340.226562 64.082031 C 1339.699219 63.976562 1339.167969 63.925781 1338.628906 63.925781 Z M 1338.628906 75.78125 C 1338.144531 75.78125 1337.675781 75.6875 1337.222656 75.5 C 1336.773438 75.316406 1336.375 75.050781 1336.03125 74.703125 C 1335.6875 74.359375 1335.421875 73.960938 1335.234375 73.511719 C 1335.046875 73.0625 1334.953125 72.59375 1334.953125 72.105469 C 1334.953125 71.617188 1335.046875 71.148438 1335.234375 70.699219 C 1335.421875 70.25 1335.6875 69.851562 1336.03125 69.507812 C 1336.375 69.164062 1336.773438 68.898438 1337.222656 68.710938 C 1337.675781 68.523438 1338.144531 68.429688 1338.628906 68.429688 C 1339.117188 68.429688 1339.585938 68.523438 1340.035156 68.710938 C 1340.488281 68.898438 1340.882812 69.164062 1341.230469 69.507812 C 1341.574219 69.851562 1341.839844 70.25 1342.027344 70.699219 C 1342.210938 71.148438 1342.304688 71.617188 1342.304688 72.105469 C 1342.304688 72.59375 1342.210938 73.0625 1342.027344 73.511719 C 1341.839844 73.960938 1341.574219 74.359375 1341.230469 74.703125 C 1340.882812 75.050781 1340.488281 75.316406 1340.035156 75.5 C 1339.585938 75.6875 1339.117188 75.78125 1338.628906 75.78125 Z M 1338.628906 75.78125 " fill-opacity="1" fill-rule="nonzero"/></g><g clip-path="url(#28d5b71934)"><path fill="#ffffff" d="M 1362.34375 63.925781 C 1361.804688 63.925781 1361.273438 63.976562 1360.746094 64.082031 C 1360.21875 64.1875 1359.707031 64.34375 1359.210938 64.546875 C 1358.714844 64.753906 1358.242188 65.003906 1357.796875 65.304688 C 1357.351562 65.601562 1356.9375 65.941406 1356.558594 66.320312 C 1356.179688 66.703125 1355.839844 67.113281 1355.539062 67.5625 C 1355.242188 68.007812 1354.988281 68.480469 1354.785156 68.976562 C 1354.578125 69.472656 1354.421875 69.984375 1354.320312 70.511719 C 1354.214844 71.035156 1354.160156 71.570312 1354.160156 72.105469 C 1354.160156 72.644531 1354.214844 73.175781 1354.320312 73.703125 C 1354.421875 74.230469 1354.578125 74.742188 1354.785156 75.238281 C 1354.988281 75.734375 1355.242188 76.203125 1355.539062 76.652344 C 1355.839844 77.097656 1356.179688 77.511719 1356.558594 77.890625 C 1356.9375 78.269531 1357.351562 78.609375 1357.796875 78.90625 C 1358.242188 79.207031 1358.714844 79.457031 1359.210938 79.664062 C 1359.707031 79.871094 1360.21875 80.023438 1360.746094 80.128906 C 1361.273438 80.234375 1361.804688 80.285156 1362.34375 80.285156 C 1362.878906 80.285156 1363.410156 80.234375 1363.9375 80.128906 C 1364.464844 80.023438 1364.976562 79.871094 1365.472656 79.664062 C 1365.96875 79.457031 1366.441406 79.207031 1366.886719 78.90625 C 1367.332031 78.609375 1367.746094 78.269531 1368.128906 77.890625 C 1368.507812 77.511719 1368.847656 77.097656 1369.144531 76.652344 C 1369.441406 76.203125 1369.695312 75.734375 1369.898438 75.238281 C 1370.105469 74.742188 1370.261719 74.230469 1370.367188 73.703125 C 1370.46875 73.175781 1370.523438 72.644531 1370.523438 72.105469 C 1370.523438 71.570312 1370.46875 71.035156 1370.367188 70.511719 C 1370.261719 69.984375 1370.105469 69.472656 1369.898438 68.976562 C 1369.695312 68.480469 1369.441406 68.007812 1369.144531 67.5625 C 1368.847656 67.113281 1368.507812 66.703125 1368.128906 66.320312 C 1367.746094 65.941406 1367.332031 65.601562 1366.886719 65.304688 C 1366.441406 65.003906 1365.96875 64.753906 1365.472656 64.546875 C 1364.976562 64.34375 1364.464844 64.1875 1363.9375 64.082031 C 1363.410156 63.976562 1362.878906 63.925781 1362.34375 63.925781 Z M 1362.34375 75.78125 C 1361.855469 75.78125 1361.386719 75.6875 1360.9375 75.5 C 1360.484375 75.316406 1360.089844 75.050781 1359.742188 74.703125 C 1359.398438 74.359375 1359.132812 73.960938 1358.945312 73.511719 C 1358.761719 73.0625 1358.667969 72.59375 1358.667969 72.105469 C 1358.667969 71.617188 1358.761719 71.148438 1358.945312 70.699219 C 1359.132812 70.25 1359.398438 69.851562 1359.742188 69.507812 C 1360.089844 69.164062 1360.484375 68.898438 1360.9375 68.710938 C 1361.386719 68.523438 1361.855469 68.429688 1362.34375 68.429688 C 1362.828125 68.429688 1363.296875 68.523438 1363.75 68.710938 C 1364.199219 68.898438 1364.597656 69.164062 1364.941406 69.507812 C 1365.285156 69.851562 1365.550781 70.25 1365.738281 70.699219 C 1365.925781 71.148438 1366.019531 71.617188 1366.019531 72.105469 C 1366.019531 72.59375 1365.925781 73.0625 1365.738281 73.511719 C 1365.550781 73.960938 1365.285156 74.359375 1364.941406 74.703125 C 1364.597656 75.050781 1364.199219 75.316406 1363.75 75.5 C 1363.296875 75.6875 1362.828125 75.78125 1362.34375 75.78125 Z M 1362.34375 75.78125 " fill-opacity="1" fill-rule="nonzero"/></g><g clip-path="url(#cdd5dd781d)"><path fill="#ffffff" d="M 1386.054688 63.925781 C 1385.515625 63.925781 1384.984375 63.976562 1384.457031 64.082031 C 1383.933594 64.1875 1383.421875 64.34375 1382.925781 64.546875 C 1382.425781 64.753906 1381.957031 65.003906 1381.507812 65.304688 C 1381.0625 65.601562 1380.648438 65.941406 1380.269531 66.320312 C 1379.890625 66.703125 1379.550781 67.113281 1379.253906 67.5625 C 1378.953125 68.007812 1378.703125 68.480469 1378.496094 68.976562 C 1378.289062 69.472656 1378.136719 69.984375 1378.03125 70.511719 C 1377.925781 71.035156 1377.875 71.570312 1377.875 72.105469 C 1377.875 72.644531 1377.925781 73.175781 1378.03125 73.703125 C 1378.136719 74.230469 1378.289062 74.742188 1378.496094 75.238281 C 1378.703125 75.734375 1378.953125 76.203125 1379.253906 76.652344 C 1379.550781 77.097656 1379.890625 77.511719 1380.269531 77.890625 C 1380.648438 78.269531 1381.0625 78.609375 1381.507812 78.90625 C 1381.957031 79.207031 1382.425781 79.457031 1382.925781 79.664062 C 1383.421875 79.871094 1383.933594 80.023438 1384.457031 80.128906 C 1384.984375 80.234375 1385.515625 80.285156 1386.054688 80.285156 C 1386.589844 80.285156 1387.125 80.234375 1387.652344 80.128906 C 1388.175781 80.023438 1388.6875 79.871094 1389.183594 79.664062 C 1389.679688 79.457031 1390.152344 79.207031 1390.597656 78.90625 C 1391.046875 78.609375 1391.460938 78.269531 1391.839844 77.890625 C 1392.21875 77.511719 1392.558594 77.097656 1392.855469 76.652344 C 1393.15625 76.203125 1393.40625 75.734375 1393.613281 75.238281 C 1393.816406 74.742188 1393.972656 74.230469 1394.078125 73.703125 C 1394.183594 73.175781 1394.234375 72.644531 1394.234375 72.105469 C 1394.234375 71.570312 1394.183594 71.035156 1394.078125 70.511719 C 1393.972656 69.984375 1393.816406 69.472656 1393.613281 68.976562 C 1393.40625 68.480469 1393.15625 68.007812 1392.855469 67.5625 C 1392.558594 67.113281 1392.21875 66.703125 1391.839844 66.320312 C 1391.460938 65.941406 1391.046875 65.601562 1390.597656 65.304688 C 1390.152344 65.003906 1389.679688 64.753906 1389.183594 64.546875 C 1388.6875 64.34375 1388.175781 64.1875 1387.652344 64.082031 C 1387.125 63.976562 1386.589844 63.925781 1386.054688 63.925781 Z M 1386.054688 75.78125 C 1385.566406 75.78125 1385.097656 75.6875 1384.648438 75.5 C 1384.199219 75.316406 1383.800781 75.050781 1383.457031 74.703125 C 1383.109375 74.359375 1382.84375 73.960938 1382.660156 73.511719 C 1382.472656 73.0625 1382.378906 72.59375 1382.378906 72.105469 C 1382.378906 71.617188 1382.472656 71.148438 1382.660156 70.699219 C 1382.84375 70.25 1383.109375 69.851562 1383.457031 69.507812 C 1383.800781 69.164062 1384.199219 68.898438 1384.648438 68.710938 C 1385.097656 68.523438 1385.566406 68.429688 1386.054688 68.429688 C 1386.542969 68.429688 1387.011719 68.523438 1387.460938 68.710938 C 1387.910156 68.898438 1388.308594 69.164062 1388.652344 69.507812 C 1388.996094 69.851562 1389.261719 70.25 1389.449219 70.699219 C 1389.636719 71.148438 1389.730469 71.617188 1389.730469 72.105469 C 1389.730469 72.59375 1389.636719 73.0625 1389.449219 73.511719 C 1389.261719 73.960938 1388.996094 74.359375 1388.652344 74.703125 C 1388.308594 75.050781 1387.910156 75.316406 1387.460938 75.5 C 1387.011719 75.6875 1386.542969 75.78125 1386.054688 75.78125 Z M 1386.054688 75.78125 " fill-opacity="1" fill-rule="nonzero"/></g><g clip-path="url(#b757faec47)"><path fill="#ffffff" d="M 738.882812 -7.433594 C 735 -7.433594 731.847656 -4.277344 731.847656 -0.394531 C 731.847656 3.488281 735 6.640625 738.882812 6.640625 C 742.765625 6.640625 745.921875 3.488281 745.921875 -0.394531 C 745.921875 -4.277344 742.765625 -7.433594 738.882812 -7.433594 Z M 738.882812 4.085938 C 736.40625 4.085938 734.402344 2.082031 734.402344 -0.394531 C 734.402344 -2.875 736.40625 -4.878906 738.882812 -4.878906 C 741.363281 -4.878906 743.367188 -2.875 743.367188 -0.394531 C 743.367188 2.082031 741.363281 4.085938 738.882812 4.085938 Z M 738.882812 4.085938 " fill-opacity="1" fill-rule="nonzero"/></g><path fill="#ffffff" d="M 762.320312 -7.433594 C 758.4375 -7.433594 755.285156 -4.277344 755.285156 -0.394531 C 755.285156 3.488281 758.4375 6.640625 762.320312 6.640625 C 766.203125 6.640625 769.359375 3.488281 769.359375 -0.394531 C 769.359375 -4.277344 766.191406 -7.433594 762.320312 -7.433594 Z M 762.320312 4.085938 C 759.84375 4.085938 757.839844 2.082031 757.839844 -0.394531 C 757.839844 -2.875 759.84375 -4.878906 762.320312 -4.878906 C 764.800781 -4.878906 766.804688 -2.875 766.804688 -0.394531 C 766.804688 2.082031 764.785156 4.085938 762.320312 4.085938 Z M 762.320312 4.085938 " fill-opacity="1" fill-rule="nonzero"/><path fill="#ffffff" d="M 785.746094 -7.433594 C 781.863281 -7.433594 778.707031 -4.277344 778.707031 -0.394531 C 778.707031 3.488281 781.863281 6.640625 785.746094 6.640625 C 789.628906 6.640625 792.785156 3.488281 792.785156 -0.394531 C 792.785156 -4.277344 789.628906 -7.433594 785.746094 -7.433594 Z M 785.746094 4.085938 C 783.269531 4.085938 781.261719 2.082031 781.261719 -0.394531 C 781.261719 -2.875 783.269531 -4.878906 785.746094 -4.878906 C 788.222656 -4.878906 790.230469 -2.875 790.230469 -0.394531 C 790.230469 2.082031 788.222656 4.085938 785.746094 4.085938 Z M 785.746094 4.085938 " fill-opacity="1" fill-rule="nonzero"/><path fill="#ffffff" d="M 809.171875 -7.433594 C 805.289062 -7.433594 802.132812 -4.277344 802.132812 -0.394531 C 802.132812 3.488281 805.289062 6.640625 809.171875 6.640625 C 813.054688 6.640625 816.207031 3.488281 816.207031 -0.394531 C 816.207031 -4.277344 813.054688 -7.433594 809.171875 -7.433594 Z M 809.171875 4.085938 C 806.691406 4.085938 804.6875 2.082031 804.6875 -0.394531 C 804.6875 -2.875 806.691406 -4.878906 809.171875 -4.878906 C 811.648438 -4.878906 813.652344 -2.875 813.652344 -0.394531 C 813.652344 2.082031 811.648438 4.085938 809.171875 4.085938 Z M 809.171875 4.085938 " fill-opacity="1" fill-rule="nonzero"/><g clip-path="url(#44f0f78256)"><path fill="#ffffff" d="M 832.609375 -7.433594 C 828.726562 -7.433594 825.570312 -4.277344 825.570312 -0.394531 C 825.570312 3.488281 828.726562 6.640625 832.609375 6.640625 C 836.492188 6.640625 839.644531 3.488281 839.644531 -0.394531 C 839.644531 -4.277344 836.492188 -7.433594 832.609375 -7.433594 Z M 832.609375 4.085938 C 830.128906 4.085938 828.125 2.082031 828.125 -0.394531 C 828.125 -2.875 830.128906 -4.878906 832.609375 -4.878906 C 835.085938 -4.878906 837.089844 -2.875 837.089844 -0.394531 C 837.089844 2.082031 835.074219 4.085938 832.609375 4.085938 Z M 832.609375 4.085938 " fill-opacity="1" fill-rule="nonzero"/></g><g clip-path="url(#840cfe3cec)"><path fill="#ffffff" d="M 738.882812 15.3125 C 735 15.3125 731.847656 18.46875 731.847656 22.351562 C 731.847656 26.234375 735 29.390625 738.882812 29.390625 C 742.765625 29.390625 745.921875 26.234375 745.921875 22.351562 C 745.921875 18.46875 742.765625 15.3125 738.882812 15.3125 Z M 738.882812 26.835938 C 736.40625 26.835938 734.402344 24.828125 734.402344 22.351562 C 734.402344 19.875 736.40625 17.867188 738.882812 17.867188 C 741.363281 17.867188 743.367188 19.875 743.367188 22.351562 C 743.367188 24.828125 741.363281 26.835938 738.882812 26.835938 Z M 738.882812 26.835938 " fill-opacity="1" fill-rule="nonzero"/></g><path fill="#ffffff" d="M 762.320312 15.3125 C 758.4375 15.3125 755.285156 18.46875 755.285156 22.351562 C 755.285156 26.234375 758.4375 29.390625 762.320312 29.390625 C 766.203125 29.390625 769.359375 26.234375 769.359375 22.351562 C 769.359375 18.46875 766.191406 15.3125 762.320312 15.3125 Z M 762.320312 26.835938 C 759.84375 26.835938 757.839844 24.828125 757.839844 22.351562 C 757.839844 19.875 759.84375 17.867188 762.320312 17.867188 C 764.800781 17.867188 766.804688 19.875 766.804688 22.351562 C 766.804688 24.828125 764.785156 26.835938 762.320312 26.835938 Z M 762.320312 26.835938 " fill-opacity="1" fill-rule="nonzero"/><path fill="#ffffff" d="M 785.746094 15.3125 C 781.863281 15.3125 778.707031 18.46875 778.707031 22.351562 C 778.707031 26.234375 781.863281 29.390625 785.746094 29.390625 C 789.628906 29.390625 792.785156 26.234375 792.785156 22.351562 C 792.785156 18.46875 789.628906 15.3125 785.746094 15.3125 Z M 785.746094 26.835938 C 783.269531 26.835938 781.261719 24.828125 781.261719 22.351562 C 781.261719 19.875 783.269531 17.867188 785.746094 17.867188 C 788.222656 17.867188 790.230469 19.875 790.230469 22.351562 C 790.230469 24.828125 788.222656 26.835938 785.746094 26.835938 Z M 785.746094 26.835938 " fill-opacity="1" fill-rule="nonzero"/><path fill="#ffffff" d="M 809.171875 15.3125 C 805.289062 15.3125 802.132812 18.46875 802.132812 22.351562 C 802.132812 26.234375 805.289062 29.390625 809.171875 29.390625 C 813.054688 29.390625 816.207031 26.234375 816.207031 22.351562 C 816.207031 18.46875 813.054688 15.3125 809.171875 15.3125 Z M 809.171875 26.835938 C 806.691406 26.835938 804.6875 24.828125 804.6875 22.351562 C 804.6875 19.875 806.691406 17.867188 809.171875 17.867188 C 811.648438 17.867188 813.652344 19.875 813.652344 22.351562 C 813.652344 24.828125 811.648438 26.835938 809.171875 26.835938 Z M 809.171875 26.835938 " fill-opacity="1" fill-rule="nonzero"/><g clip-path="url(#db96c8d582)"><path fill="#ffffff" d="M 832.609375 15.3125 C 828.726562 15.3125 825.570312 18.46875 825.570312 22.351562 C 825.570312 26.234375 828.726562 29.390625 832.609375 29.390625 C 836.492188 29.390625 839.644531 26.234375 839.644531 22.351562 C 839.644531 18.46875 836.492188 15.3125 832.609375 15.3125 Z M 832.609375 26.835938 C 830.128906 26.835938 828.125 24.828125 828.125 22.351562 C 828.125 19.875 830.128906 17.867188 832.609375 17.867188 C 835.085938 17.867188 837.089844 19.875 837.089844 22.351562 C 837.089844 24.828125 835.074219 26.835938 832.609375 26.835938 Z M 832.609375 26.835938 " fill-opacity="1" fill-rule="nonzero"/></g><g clip-path="url(#45b8512242)"><path fill="#ffffff" d="M 738.882812 38.0625 C 735 38.0625 731.847656 41.214844 731.847656 45.097656 C 731.847656 48.980469 735 52.136719 738.882812 52.136719 C 742.765625 52.136719 745.921875 48.980469 745.921875 45.097656 C 745.921875 41.214844 742.765625 38.0625 738.882812 38.0625 Z M 738.882812 49.582031 C 736.40625 49.582031 734.402344 47.578125 734.402344 45.097656 C 734.402344 42.621094 736.40625 40.617188 738.882812 40.617188 C 741.363281 40.617188 743.367188 42.621094 743.367188 45.097656 C 743.367188 47.578125 741.363281 49.582031 738.882812 49.582031 Z M 738.882812 49.582031 " fill-opacity="1" fill-rule="nonzero"/></g><path fill="#ffffff" d="M 762.320312 38.0625 C 758.4375 38.0625 755.285156 41.214844 755.285156 45.097656 C 755.285156 48.980469 758.4375 52.136719 762.320312 52.136719 C 766.203125 52.136719 769.359375 48.980469 769.359375 45.097656 C 769.359375 41.214844 766.191406 38.0625 762.320312 38.0625 Z M 762.320312 49.582031 C 759.84375 49.582031 757.839844 47.578125 757.839844 45.097656 C 757.839844 42.621094 759.84375 40.617188 762.320312 40.617188 C 764.800781 40.617188 766.804688 42.621094 766.804688 45.097656 C 766.804688 47.578125 764.785156 49.582031 762.320312 49.582031 Z M 762.320312 49.582031 " fill-opacity="1" fill-rule="nonzero"/><path fill="#ffffff" d="M 785.746094 38.0625 C 781.863281 38.0625 778.707031 41.214844 778.707031 45.097656 C 778.707031 48.980469 781.863281 52.136719 785.746094 52.136719 C 789.628906 52.136719 792.785156 48.980469 792.785156 45.097656 C 792.785156 41.214844 789.628906 38.0625 785.746094 38.0625 Z M 785.746094 49.582031 C 783.269531 49.582031 781.261719 47.578125 781.261719 45.097656 C 781.261719 42.621094 783.269531 40.617188 785.746094 40.617188 C 788.222656 40.617188 790.230469 42.621094 790.230469 45.097656 C 790.230469 47.578125 788.222656 49.582031 785.746094 49.582031 Z M 785.746094 49.582031 " fill-opacity="1" fill-rule="nonzero"/><path fill="#ffffff" d="M 809.171875 38.0625 C 805.289062 38.0625 802.132812 41.214844 802.132812 45.097656 C 802.132812 48.980469 805.289062 52.136719 809.171875 52.136719 C 813.054688 52.136719 816.207031 48.980469 816.207031 45.097656 C 816.207031 41.214844 813.054688 38.0625 809.171875 38.0625 Z M 809.171875 49.582031 C 806.691406 49.582031 804.6875 47.578125 804.6875 45.097656 C 804.6875 42.621094 806.691406 40.617188 809.171875 40.617188 C 811.648438 40.617188 813.652344 42.621094 813.652344 45.097656 C 813.652344 47.578125 811.648438 49.582031 809.171875 49.582031 Z M 809.171875 49.582031 " fill-opacity="1" fill-rule="nonzero"/><g clip-path="url(#99e1d7a76a)"><path fill="#ffffff" d="M 832.609375 38.0625 C 828.726562 38.0625 825.570312 41.214844 825.570312 45.097656 C 825.570312 48.980469 828.726562 52.136719 832.609375 52.136719 C 836.492188 52.136719 839.644531 48.980469 839.644531 45.097656 C 839.644531 41.214844 836.492188 38.0625 832.609375 38.0625 Z M 832.609375 49.582031 C 830.128906 49.582031 828.125 47.578125 828.125 45.097656 C 828.125 42.621094 830.128906 40.617188 832.609375 40.617188 C 835.085938 40.617188 837.089844 42.621094 837.089844 45.097656 C 837.089844 47.578125 835.074219 49.582031 832.609375 49.582031 Z M 832.609375 49.582031 " fill-opacity="1" fill-rule="nonzero"/></g><g clip-path="url(#f9e6201dbb)"><path fill="#ffffff" d="M 738.882812 60.808594 C 735 60.808594 731.847656 63.964844 731.847656 67.847656 C 731.847656 71.730469 735 74.882812 738.882812 74.882812 C 742.765625 74.882812 745.921875 71.730469 745.921875 67.847656 C 745.921875 63.964844 742.765625 60.808594 738.882812 60.808594 Z M 738.882812 72.332031 C 736.40625 72.332031 734.402344 70.324219 734.402344 67.847656 C 734.402344 65.371094 736.40625 63.363281 738.882812 63.363281 C 741.363281 63.363281 743.367188 65.371094 743.367188 67.847656 C 743.367188 70.324219 741.363281 72.332031 738.882812 72.332031 Z M 738.882812 72.332031 " fill-opacity="1" fill-rule="nonzero"/></g><path fill="#ffffff" d="M 762.320312 60.808594 C 758.4375 60.808594 755.285156 63.964844 755.285156 67.847656 C 755.285156 71.730469 758.4375 74.882812 762.320312 74.882812 C 766.203125 74.882812 769.359375 71.730469 769.359375 67.847656 C 769.359375 63.964844 766.191406 60.808594 762.320312 60.808594 Z M 762.320312 72.332031 C 759.84375 72.332031 757.839844 70.324219 757.839844 67.847656 C 757.839844 65.371094 759.84375 63.363281 762.320312 63.363281 C 764.800781 63.363281 766.804688 65.371094 766.804688 67.847656 C 766.804688 70.324219 764.785156 72.332031 762.320312 72.332031 Z M 762.320312 72.332031 " fill-opacity="1" fill-rule="nonzero"/><path fill="#ffffff" d="M 785.746094 60.808594 C 781.863281 60.808594 778.707031 63.964844 778.707031 67.847656 C 778.707031 71.730469 781.863281 74.882812 785.746094 74.882812 C 789.628906 74.882812 792.785156 71.730469 792.785156 67.847656 C 792.785156 63.964844 789.628906 60.808594 785.746094 60.808594 Z M 785.746094 72.332031 C 783.269531 72.332031 781.261719 70.324219 781.261719 67.847656 C 781.261719 65.371094 783.269531 63.363281 785.746094 63.363281 C 788.222656 63.363281 790.230469 65.371094 790.230469 67.847656 C 790.230469 70.324219 788.222656 72.332031 785.746094 72.332031 Z M 785.746094 72.332031 " fill-opacity="1" fill-rule="nonzero"/><path fill="#ffffff" d="M 809.171875 60.808594 C 805.289062 60.808594 802.132812 63.964844 802.132812 67.847656 C 802.132812 71.730469 805.289062 74.882812 809.171875 74.882812 C 813.054688 74.882812 816.207031 71.730469 816.207031 67.847656 C 816.207031 63.964844 813.054688 60.808594 809.171875 60.808594 Z M 809.171875 72.332031 C 806.691406 72.332031 804.6875 70.324219 804.6875 67.847656 C 804.6875 65.371094 806.691406 63.363281 809.171875 63.363281 C 811.648438 63.363281 813.652344 65.371094 813.652344 67.847656 C 813.652344 70.324219 811.648438 72.332031 809.171875 72.332031 Z M 809.171875 72.332031 " fill-opacity="1" fill-rule="nonzero"/><g clip-path="url(#7f1f49a0d5)"><path fill="#ffffff" d="M 832.609375 60.808594 C 828.726562 60.808594 825.570312 63.964844 825.570312 67.847656 C 825.570312 71.730469 828.726562 74.882812 832.609375 74.882812 C 836.492188 74.882812 839.644531 71.730469 839.644531 67.847656 C 839.644531 63.964844 836.492188 60.808594 832.609375 60.808594 Z M 832.609375 72.332031 C 830.128906 72.332031 828.125 70.324219 828.125 67.847656 C 828.125 65.371094 830.128906 63.363281 832.609375 63.363281 C 835.085938 63.363281 837.089844 65.371094 837.089844 67.847656 C 837.089844 70.324219 835.074219 72.332031 832.609375 72.332031 Z M 832.609375 72.332031 " fill-opacity="1" fill-rule="nonzero"/></g><g clip-path="url(#414e464f65)"><path fill="#ffffff" d="M 738.882812 83.558594 C 735 83.558594 731.847656 86.710938 731.847656 90.59375 C 731.847656 94.476562 735 97.632812 738.882812 97.632812 C 742.765625 97.632812 745.921875 94.476562 745.921875 90.59375 C 745.921875 86.710938 742.765625 83.558594 738.882812 83.558594 Z M 738.882812 95.078125 C 736.40625 95.078125 734.402344 93.074219 734.402344 90.59375 C 734.402344 88.117188 736.40625 86.113281 738.882812 86.113281 C 741.363281 86.113281 743.367188 88.117188 743.367188 90.59375 C 743.367188 93.074219 741.363281 95.078125 738.882812 95.078125 Z M 738.882812 95.078125 " fill-opacity="1" fill-rule="nonzero"/></g><g clip-path="url(#6ddeb0dc94)"><path fill="#ffffff" d="M 762.320312 83.558594 C 758.4375 83.558594 755.285156 86.710938 755.285156 90.59375 C 755.285156 94.476562 758.4375 97.632812 762.320312 97.632812 C 766.203125 97.632812 769.359375 94.476562 769.359375 90.59375 C 769.359375 86.710938 766.191406 83.558594 762.320312 83.558594 Z M 762.320312 95.078125 C 759.84375 95.078125 757.839844 93.074219 757.839844 90.59375 C 757.839844 88.117188 759.84375 86.113281 762.320312 86.113281 C 764.800781 86.113281 766.804688 88.117188 766.804688 90.59375 C 766.804688 93.074219 764.785156 95.078125 762.320312 95.078125 Z M 762.320312 95.078125 " fill-opacity="1" fill-rule="nonzero"/></g><g clip-path="url(#ce8a13dc96)"><path fill="#ffffff" d="M 785.746094 83.558594 C 781.863281 83.558594 778.707031 86.710938 778.707031 90.59375 C 778.707031 94.476562 781.863281 97.632812 785.746094 97.632812 C 789.628906 97.632812 792.785156 94.476562 792.785156 90.59375 C 792.785156 86.710938 789.628906 83.558594 785.746094 83.558594 Z M 785.746094 95.078125 C 783.269531 95.078125 781.261719 93.074219 781.261719 90.59375 C 781.261719 88.117188 783.269531 86.113281 785.746094 86.113281 C 788.222656 86.113281 790.230469 88.117188 790.230469 90.59375 C 790.230469 93.074219 788.222656 95.078125 785.746094 95.078125 Z M 785.746094 95.078125 " fill-opacity="1" fill-rule="nonzero"/></g><g clip-path="url(#fab5f1a82e)"><path fill="#ffffff" d="M 809.171875 83.558594 C 805.289062 83.558594 802.132812 86.710938 802.132812 90.59375 C 802.132812 94.476562 805.289062 97.632812 809.171875 97.632812 C 813.054688 97.632812 816.207031 94.476562 816.207031 90.59375 C 816.207031 86.710938 813.054688 83.558594 809.171875 83.558594 Z M 809.171875 95.078125 C 806.691406 95.078125 804.6875 93.074219 804.6875 90.59375 C 804.6875 88.117188 806.691406 86.113281 809.171875 86.113281 C 811.648438 86.113281 813.652344 88.117188 813.652344 90.59375 C 813.652344 93.074219 811.648438 95.078125 809.171875 95.078125 Z M 809.171875 95.078125 " fill-opacity="1" fill-rule="nonzero"/></g><g clip-path="url(#1e4fd4a808)"><path fill="#ffffff" d="M 832.609375 83.558594 C 828.726562 83.558594 825.570312 86.710938 825.570312 90.59375 C 825.570312 94.476562 828.726562 97.632812 832.609375 97.632812 C 836.492188 97.632812 839.644531 94.476562 839.644531 90.59375 C 839.644531 86.710938 836.492188 83.558594 832.609375 83.558594 Z M 832.609375 95.078125 C 830.128906 95.078125 828.125 93.074219 828.125 90.59375 C 828.125 88.117188 830.128906 86.113281 832.609375 86.113281 C 835.085938 86.113281 837.089844 88.117188 837.089844 90.59375 C 837.089844 93.074219 835.074219 95.078125 832.609375 95.078125 Z M 832.609375 95.078125 " fill-opacity="1" fill-rule="nonzero"/></g><g clip-path="url(#17590385e1)"><g clip-path="url(#5ad9ea1645)"><g clip-path="url(#dcdcd2ca8c)"><path fill="#2b2b2b" d="M 450.785156 -236.195312 L 521.054688 -117.390625 L -229.484375 326.527344 L -299.75 207.722656 Z M 450.785156 -236.195312 " fill-opacity="1" fill-rule="nonzero"/></g></g></g><g clip-path="url(#a1b289f690)"><g clip-path="url(#6197bd58a6)"><g clip-path="url(#45936b0341)"><path fill="#2b2b2b" d="M 1752.03125 370.46875 L 2040.625 858.394531 L 1038.136719 1451.335938 L 749.542969 963.410156 Z M 1752.03125 370.46875 " fill-opacity="1" fill-rule="nonzero"/></g></g></g><g clip-path="url(#208113d5c9)"><g clip-path="url(#46da70916b)"><g clip-path="url(#29c8d69b80)"><path fill="#2b2b2b" d="M 1014.152344 -279.476562 L 1081.046875 -166.375 L -40.90625 497.222656 L -107.804688 384.125 Z M 1014.152344 -279.476562 " fill-opacity="1" fill-rule="nonzero"/></g></g></g><g clip-path="url(#45f4510ad5)"><g clip-path="url(#bddcf52cac)"><path fill="#2b2b2b" d="M 1522.027344 -193.359375 L 1588.921875 -80.261719 L -22.949219 873.113281 L -89.84375 760.011719 Z M 1522.027344 -193.359375 " fill-opacity="1" fill-rule="nonzero"/></g></g><g clip-path="url(#7bb155785a)"><g clip-path="url(#ac6910d500)"><g clip-path="url(#31793474e6)"><path fill="#2b2b2b" d="M 1829.449219 0 L 1896.34375 113.097656 L 284.472656 1066.472656 L 217.578125 953.371094 Z M 1829.449219 0 " fill-opacity="1" fill-rule="nonzero"/></g></g></g></svg>