<svg xmlns="http://www.w3.org/2000/svg" xmlns:xlink="http://www.w3.org/1999/xlink" width="793" zoomAndPan="magnify" viewBox="0 0 595.5 842.249979" height="1122" preserveAspectRatio="xMidYMid meet" version="1.0"><defs><clipPath id="ff432ec40d"><path d="M 43.265625 191.871094 L 514.242188 191.871094 L 514.242188 626.851562 L 43.265625 626.851562 Z M 43.265625 191.871094 " clip-rule="nonzero"/></clipPath></defs><path fill="#2e2e2e" d="M 420.273438 409.3125 C 420.273438 479.578125 363.707031 536.367188 293.433594 536.640625 C 289.28125 536.664062 285.140625 536.484375 281.007812 536.097656 C 276.875 535.714844 272.769531 535.128906 268.691406 534.34375 C 264.617188 533.554688 260.589844 532.570312 256.609375 531.390625 C 252.632812 530.207031 248.71875 528.835938 244.875 527.269531 C 241.03125 525.703125 237.273438 523.953125 233.597656 522.019531 C 229.925781 520.085938 226.355469 517.976562 222.890625 515.691406 C 219.425781 513.40625 216.078125 510.960938 212.855469 508.347656 C 209.628906 505.734375 206.539062 502.96875 203.585938 500.054688 L 156.441406 508.570312 C 155.878906 508.664062 155.3125 508.679688 154.742188 508.617188 C 154.171875 508.554688 153.621094 508.417969 153.089844 508.203125 C 152.558594 507.988281 152.070312 507.707031 151.617188 507.355469 C 151.164062 507.003906 150.765625 506.597656 150.425781 506.140625 C 150.085938 505.679688 149.816406 505.179688 149.613281 504.644531 C 149.410156 504.109375 149.285156 503.554688 149.234375 502.984375 C 149.1875 502.414062 149.214844 501.847656 149.324219 501.289062 C 149.433594 500.726562 149.613281 500.1875 149.871094 499.675781 L 173.679688 454.113281 C 170.902344 446.722656 168.832031 439.136719 167.46875 431.359375 C 166.105469 423.582031 165.476562 415.742188 165.578125 407.847656 C 166.363281 337.929688 222.984375 281.984375 292.921875 281.984375 C 363.257812 281.984375 420.273438 338.996094 420.273438 409.3125 Z M 420.273438 409.3125 " fill-opacity="1" fill-rule="nonzero"/><g clip-path="url(#ff432ec40d)"><path fill="#a5a5a5" d="M 296.566406 191.863281 C 176.449219 191.863281 79.074219 289.21875 79.074219 409.3125 C 79.058594 422.53125 80.242188 435.636719 82.625 448.636719 C 85.003906 461.636719 88.542969 474.3125 93.242188 486.667969 L 44.839844 577.414062 C 44.496094 578.058594 44.246094 578.738281 44.09375 579.453125 C 43.941406 580.164062 43.886719 580.886719 43.9375 581.617188 C 43.984375 582.347656 44.132812 583.054688 44.382812 583.742188 C 44.628906 584.429688 44.964844 585.070312 45.390625 585.664062 C 45.820312 586.257812 46.320312 586.78125 46.894531 587.234375 C 47.464844 587.6875 48.089844 588.050781 48.765625 588.332031 C 49.441406 588.609375 50.144531 588.789062 50.871094 588.871094 C 51.597656 588.953125 52.320312 588.933594 53.042969 588.8125 L 152.382812 572.125 C 157.296875 576.488281 162.402344 580.621094 167.695312 584.519531 C 172.984375 588.417969 178.441406 592.070312 184.066406 595.472656 C 189.691406 598.875 195.457031 602.015625 201.367188 604.890625 C 207.277344 607.769531 213.304688 610.375 219.449219 612.703125 C 225.597656 615.03125 231.835938 617.078125 238.167969 618.839844 C 244.5 620.601562 250.902344 622.070312 257.367188 623.25 C 263.835938 624.429688 270.339844 625.3125 276.886719 625.902344 C 283.433594 626.488281 289.996094 626.777344 296.570312 626.769531 C 416.6875 626.769531 514.066406 529.410156 514.066406 409.3125 C 514.066406 289.316406 416.585938 191.863281 296.566406 191.863281 Z M 297.214844 570.058594 C 291.972656 570.085938 286.746094 569.855469 281.527344 569.371094 C 276.308594 568.886719 271.128906 568.148438 265.980469 567.152344 C 260.835938 566.160156 255.75 564.917969 250.726562 563.425781 C 245.703125 561.933594 240.765625 560.199219 235.914062 558.222656 C 231.058594 556.246094 226.3125 554.039062 221.675781 551.597656 C 217.039062 549.15625 212.535156 546.492188 208.160156 543.609375 C 203.785156 540.726562 199.558594 537.632812 195.488281 534.335938 C 191.417969 531.039062 187.515625 527.550781 183.785156 523.867188 L 124.269531 534.617188 C 123.558594 534.734375 122.84375 534.757812 122.125 534.675781 C 121.40625 534.597656 120.710938 534.425781 120.042969 534.152344 C 119.371094 533.882812 118.75 533.527344 118.179688 533.085938 C 117.609375 532.640625 117.109375 532.128906 116.679688 531.546875 C 116.25 530.96875 115.90625 530.339844 115.652344 529.664062 C 115.394531 528.988281 115.238281 528.289062 115.175781 527.570312 C 115.113281 526.847656 115.152344 526.132812 115.285156 525.425781 C 115.421875 524.714844 115.652344 524.035156 115.976562 523.390625 L 146.03125 465.871094 C 142.523438 456.539062 139.910156 446.964844 138.191406 437.144531 C 136.472656 427.324219 135.675781 417.429688 135.804688 407.460938 C 136.796875 319.199219 208.277344 248.570312 296.566406 248.570312 C 385.363281 248.570312 457.34375 320.539062 457.34375 409.3125 C 457.34375 498.019531 385.929688 569.707031 297.214844 570.058594 Z M 297.214844 570.058594 " fill-opacity="1" fill-rule="nonzero"/></g><path fill="#e6e6e6" d="M 274.917969 366.378906 L 269.355469 342.910156 C 269.199219 342.242188 269.003906 341.582031 268.777344 340.933594 C 268.550781 340.285156 268.289062 339.652344 267.996094 339.03125 C 267.699219 338.410156 267.375 337.808594 267.015625 337.222656 C 266.660156 336.636719 266.269531 336.070312 265.851562 335.523438 C 265.4375 334.980469 264.992188 334.457031 264.519531 333.960938 C 264.046875 333.460938 263.546875 332.988281 263.027344 332.542969 C 262.503906 332.097656 261.960938 331.679688 261.394531 331.292969 C 260.828125 330.902344 260.242188 330.542969 259.636719 330.21875 C 259.035156 329.890625 258.414062 329.597656 257.777344 329.335938 C 257.144531 329.074219 256.496094 328.84375 255.835938 328.652344 C 255.179688 328.457031 254.511719 328.300781 253.835938 328.175781 C 253.160156 328.050781 252.480469 327.964844 251.792969 327.914062 C 251.109375 327.863281 250.425781 327.847656 249.738281 327.867188 C 249.050781 327.886719 248.367188 327.945312 247.6875 328.035156 C 247.007812 328.128906 246.332031 328.257812 245.664062 328.421875 C 244.996094 328.582031 244.339844 328.78125 243.695312 329.015625 L 230.871094 333.628906 C 229.835938 334.003906 228.835938 334.460938 227.878906 335.003906 C 226.917969 335.546875 226.011719 336.164062 225.15625 336.863281 C 224.300781 337.558594 223.511719 338.320312 222.785156 339.148438 C 222.058594 339.976562 221.40625 340.863281 220.828125 341.800781 C 220.253906 342.742188 219.757812 343.722656 219.347656 344.746094 C 218.9375 345.765625 218.613281 346.816406 218.382812 347.894531 C 218.148438 348.972656 218.007812 350.0625 217.957031 351.160156 C 217.90625 352.261719 217.949219 353.359375 218.085938 354.453125 C 222.554688 390.753906 243.125 478.574219 337.726562 497.867188 C 338.660156 498.058594 339.601562 498.179688 340.554688 498.234375 C 341.503906 498.285156 342.453125 498.269531 343.402344 498.183594 C 344.351562 498.097656 345.292969 497.945312 346.21875 497.722656 C 347.144531 497.5 348.050781 497.210938 348.933594 496.855469 C 349.820312 496.5 350.671875 496.082031 351.496094 495.601562 C 352.320312 495.125 353.101562 494.585938 353.847656 493.992188 C 354.59375 493.398438 355.292969 492.753906 355.941406 492.054688 C 356.59375 491.359375 357.1875 490.621094 357.730469 489.835938 L 365.089844 479.207031 C 365.457031 478.679688 365.792969 478.136719 366.105469 477.578125 C 366.417969 477.015625 366.699219 476.441406 366.953125 475.855469 C 367.210938 475.269531 367.433594 474.667969 367.632812 474.058594 C 367.828125 473.449219 367.992188 472.832031 368.128906 472.207031 C 368.261719 471.578125 368.367188 470.949219 368.441406 470.3125 C 368.515625 469.675781 368.554688 469.035156 368.566406 468.394531 C 368.578125 467.757812 368.558594 467.117188 368.503906 466.476562 C 368.453125 465.839844 368.367188 465.207031 368.253906 464.574219 C 368.140625 463.945312 367.996094 463.320312 367.820312 462.707031 C 367.644531 462.089844 367.4375 461.484375 367.203125 460.886719 C 366.964844 460.292969 366.703125 459.710938 366.410156 459.140625 C 366.117188 458.570312 365.796875 458.015625 365.449219 457.476562 C 365.101562 456.9375 364.730469 456.417969 364.332031 455.917969 C 363.933594 455.414062 363.511719 454.933594 363.066406 454.472656 C 362.621094 454.015625 362.152344 453.578125 361.664062 453.160156 C 361.175781 452.746094 360.667969 452.359375 360.140625 451.992188 L 360.015625 451.90625 L 343.84375 440.898438 C 342.972656 440.304688 342.0625 439.785156 341.109375 439.339844 C 340.15625 438.898438 339.171875 438.53125 338.160156 438.246094 C 337.148438 437.957031 336.117188 437.753906 335.074219 437.632812 C 334.027344 437.515625 332.980469 437.476562 331.929688 437.527344 C 330.875 437.574219 329.835938 437.707031 328.804688 437.925781 C 327.777344 438.140625 326.769531 438.4375 325.789062 438.816406 C 324.808594 439.195312 323.863281 439.652344 322.953125 440.183594 C 322.046875 440.714844 321.1875 441.316406 320.375 441.984375 C 319.570312 442.652344 318.714844 443.25 317.8125 443.78125 C 316.914062 444.3125 315.972656 444.765625 315 445.144531 C 314.023438 445.523438 313.027344 445.824219 312.003906 446.042969 C 310.980469 446.261719 309.945312 446.394531 308.902344 446.449219 C 307.855469 446.5 306.816406 446.46875 305.773438 446.355469 C 304.734375 446.242188 303.710938 446.042969 302.703125 445.765625 C 301.695312 445.484375 300.714844 445.128906 299.765625 444.691406 C 298.816406 444.253906 297.90625 443.746094 297.039062 443.164062 C 287.199219 436.535156 273.882812 425.542969 265.230469 410.308594 C 264.746094 409.460938 264.328125 408.578125 263.976562 407.667969 C 263.621094 406.753906 263.339844 405.820312 263.125 404.867188 C 262.914062 403.914062 262.773438 402.949219 262.703125 401.972656 C 262.632812 400.996094 262.636719 400.023438 262.714844 399.046875 C 262.789062 398.070312 262.941406 397.109375 263.160156 396.15625 C 263.382812 395.203125 263.671875 394.273438 264.03125 393.363281 C 264.394531 392.453125 264.820312 391.578125 265.308594 390.730469 C 265.800781 389.886719 266.351562 389.082031 266.964844 388.320312 L 271.125 383.144531 C 272.058594 381.984375 272.851562 380.734375 273.5 379.394531 C 274.144531 378.050781 274.632812 376.652344 274.960938 375.203125 C 275.292969 373.75 275.453125 372.277344 275.445312 370.789062 C 275.4375 369.296875 275.261719 367.828125 274.917969 366.378906 Z M 274.917969 366.378906 " fill-opacity="1" fill-rule="nonzero"/></svg>